<?xml version="1.0" standalone="no"?>
<!DOCTYPE svg PUBLIC "-//W3C//DTD SVG 20010904//EN"
 "http://www.w3.org/TR/2001/REC-SVG-20010904/DTD/svg10.dtd">
<svg version="1.0" xmlns="http://www.w3.org/2000/svg"
 width="594.000000pt" height="420.000000pt" viewBox="0 0 594.000000 420.000000"
 preserveAspectRatio="xMidYMid meet">

<g transform="translate(0.000000,420.000000) scale(0.100000,-0.100000)"
fill="#000000" stroke="none">
<path d="M979 2700 c-14 -8 -16 -26 -12 -127 9 -196 46 -233 236 -233 l106 0
-15 35 c-10 25 -14 76 -14 185 l0 150 -142 0 c-79 0 -150 -5 -159 -10z"/>
<path d="M1602 2578 l3 -133 115 -5 c83 -4 124 -10 148 -23 43 -24 44 -20 40
150 l-3 138 -153 3 -153 3 3 -133z"/>
<path d="M2225 2698 c-3 -7 -4 -112 -3 -233 l3 -220 45 0 45 0 5 95 5 95 85 0
85 0 5 -95 5 -95 39 -3 c21 -2 43 1 48 6 14 14 20 419 7 444 -10 18 -37 21
-96 9 -2 -1 -3 -39 -3 -86 l0 -85 -90 0 -89 0 -3 88 -3 87 -43 3 c-28 2 -44
-1 -47 -10z"/>
<path d="M3247 2703 c-4 -3 -7 -37 -7 -74 l0 -67 -64 2 c-69 1 -100 -13 -139
-66 -46 -62 -27 -195 34 -239 39 -27 116 -30 154 -5 25 16 28 16 45 1 25 -23
94 -17 98 8 2 11 -5 29 -17 41 -19 20 -21 36 -23 211 l-3 190 -36 2 c-19 2
-39 0 -42 -4z m-33 -223 c23 -9 26 -15 26 -63 0 -67 -19 -97 -64 -97 -40 0
-65 25 -73 73 -5 31 -1 40 25 67 33 32 46 35 86 20z"/>
<path d="M4513 2700 c-31 -13 -40 -55 -18 -80 33 -37 95 -18 95 28 0 15 -4 32
-8 38 -11 17 -44 24 -69 14z"/>
<path d="M3403 2564 c-19 -8 -16 -45 4 -59 14 -11 17 -32 18 -136 0 -122 1
-124 24 -127 13 -2 34 -1 47 2 23 6 24 9 24 105 0 97 1 100 28 121 21 18 35
21 69 16 44 -6 53 2 53 49 0 39 -72 48 -126 15 -29 -19 -33 -19 -42 -5 -9 17
-76 29 -99 19z"/>
<path d="M3771 2549 c-80 -41 -110 -136 -69 -218 35 -70 65 -86 156 -86 66 0
82 4 109 24 57 42 79 134 49 205 -35 83 -156 120 -245 75z m133 -80 c21 -16
26 -29 26 -63 0 -59 -22 -86 -70 -86 -30 0 -43 6 -59 26 -29 37 -27 89 4 119
30 30 64 32 99 4z"/>
<path d="M4063 2563 c-18 -7 -17 -53 1 -53 22 0 26 -24 26 -151 l0 -120 43 3
42 3 5 106 c6 122 14 139 71 139 51 0 59 -18 59 -122 0 -104 16 -128 84 -128
52 0 67 22 37 54 -14 16 -20 41 -24 114 -5 102 -16 124 -74 148 -44 19 -72 18
-118 -6 -22 -11 -41 -16 -45 -11 -13 22 -78 36 -107 24z"/>
<path d="M4721 2548 c-105 -52 -120 -191 -29 -274 35 -31 43 -34 104 -34 73 0
119 20 148 65 28 43 21 60 -24 60 -30 0 -43 -6 -55 -22 -12 -17 -26 -23 -53
-23 -57 1 -77 22 -77 81 0 39 5 54 20 65 36 26 65 28 95 5 38 -27 110 -30 110
-3 0 49 -80 101 -155 102 -22 0 -60 -10 -84 -22z"/>
<path d="M2643 2548 c3 -7 35 -79 72 -160 71 -157 75 -178 35 -218 -11 -11
-33 -20 -49 -20 -23 0 -30 -5 -34 -25 -5 -30 16 -45 63 -45 70 0 101 39 174
225 19 50 49 123 66 164 16 40 30 77 30 82 0 5 -20 9 -45 9 -42 0 -46 -2 -61
-37 -9 -21 -25 -68 -37 -105 -12 -38 -25 -68 -28 -68 -4 0 -11 12 -17 28 -5
15 -23 61 -38 102 l-29 75 -54 3 c-41 2 -52 0 -48 -10z"/>
<path d="M4497 2553 c-4 -3 -7 -75 -7 -160 l0 -153 39 0 c22 0 42 3 45 8 4 7
9 178 7 265 l-1 47 -38 0 c-21 0 -42 -3 -45 -7z"/>
<path d="M1586 2006 c3 -13 6 -93 7 -177 l2 -154 152 -3 c178 -3 161 -21 153
160 -5 107 -7 119 -30 143 -44 47 -71 55 -185 55 l-105 0 6 -24z"/>
<path d="M970 1821 c0 -89 4 -151 10 -153 5 -1 75 -2 155 0 l145 3 0 128 0
129 -118 3 c-91 3 -124 8 -145 22 -14 9 -31 17 -37 17 -6 0 -10 -53 -10 -149z"/>
</g>
</svg>
